<?xml version="1.0" encoding="UTF-8"?>
<svg width="1200" height="800" viewBox="0 0 1200 800" fill="none" xmlns="http://www.w3.org/2000/svg">
  <defs>
    <linearGradient id="bg" x1="0" y1="0" x2="1200" y2="800" gradientUnits="userSpaceOnUse">
      <stop offset="0%" stop-color="#071025" />
      <stop offset="100%" stop-color="#0d1a3c" />
    </linearGradient>
    <radialGradient id="halo" cx="0.5" cy="0.25" r="0.8">
      <stop offset="0%" stop-color="#387cff" stop-opacity="0.24" />
      <stop offset="100%" stop-color="#0d1a3c" stop-opacity="0" />
    </radialGradient>
    <linearGradient id="screen" x1="220" y1="220" x2="980" y2="620" gradientUnits="userSpaceOnUse">
      <stop offset="0%" stop-color="#0b2e63" />
      <stop offset="100%" stop-color="#102550" />
    </linearGradient>
    <linearGradient id="phone" x1="820" y1="220" x2="980" y2="620" gradientUnits="userSpaceOnUse">
      <stop offset="0%" stop-color="#0d2f62" />
      <stop offset="100%" stop-color="#12264c" />
    </linearGradient>
    <linearGradient id="panelGlow" x1="200" y1="200" x2="1000" y2="700" gradientUnits="userSpaceOnUse">
      <stop offset="0%" stop-color="rgba(97, 150, 255, 0.28)" />
      <stop offset="100%" stop-color="rgba(9, 23, 60, 0)" />
    </linearGradient>
  </defs>
  <rect width="1200" height="800" rx="40" fill="url(#bg)" />
  <circle cx="860" cy="110" r="84" fill="rgba(89,170,255,0.16)" />
  <circle cx="260" cy="640" r="130" fill="rgba(56,131,255,0.08)" />
  <circle cx="960" cy="580" r="38" fill="rgba(255,255,255,0.08)" />
  <rect x="160" y="170" width="880" height="460" rx="40" fill="url(#panelGlow)" />
  <g opacity="0.98">
    <rect x="180" y="190" width="840" height="400" rx="40" fill="#11234c" />
    <rect x="210" y="210" width="540" height="300" rx="28" fill="url(#screen)" />
    <rect x="770" y="220" width="190" height="360" rx="30" fill="url(#phone)" />
    <rect x="740" y="220" width="60" height="360" rx="30" fill="#0c2148" />
    <rect x="210" y="220" width="170" height="20" rx="10" fill="#2a4d9f" />
    <rect x="210" y="256" width="380" height="20" rx="10" fill="#356ef2" />
    <rect x="210" y="292" width="260" height="18" rx="9" fill="#1b3f8d" />
    <rect x="210" y="328" width="460" height="18" rx="9" fill="#15407b" />
    <rect x="210" y="364" width="310" height="18" rx="9" fill="#1a3e7f" />
    <rect x="210" y="400" width="500" height="18" rx="9" fill="#132f6d" />
    <rect x="210" y="436" width="420" height="18" rx="9" fill="#0f284f" />
    <rect x="210" y="472" width="520" height="18" rx="9" fill="#0c2146" />
    <rect x="220" y="518" width="140" height="12" rx="6" fill="#3d72ff" />
    <rect x="372" y="518" width="100" height="12" rx="6" fill="#4fa4ff" />
    <rect x="494" y="518" width="80" height="12" rx="6" fill="#456af2" />
    <rect x="200" y="216" width="80" height="28" rx="14" fill="#2d60f1" />
    <circle cx="280" cy="230" r="4" fill="#8fb8ff" />
    <circle cx="304" cy="230" r="4" fill="#8fb8ff" />
    <circle cx="328" cy="230" r="4" fill="#8fb8ff" />
    <rect x="220" y="240" width="380" height="24" rx="12" fill="#1f4de1" />
    <rect x="220" y="280" width="120" height="24" rx="12" fill="#2f75ff" />
    <rect x="360" y="280" width="160" height="24" rx="12" fill="#2554d6" />
    <rect x="220" y="330" width="450" height="16" rx="8" fill="#1d3f8d" />
    <rect x="220" y="360" width="450" height="16" rx="8" fill="#1d3f8d" />
    <rect x="220" y="390" width="380" height="16" rx="8" fill="#1a396f" />
    <rect x="220" y="420" width="260" height="16" rx="8" fill="#1f4b95" />
    <rect x="220" y="450" width="220" height="16" rx="8" fill="#1b4289" />
    <rect x="220" y="480" width="420" height="16" rx="8" fill="#172f6d" />
    <rect x="220" y="520" width="360" height="16" rx="8" fill="#0f2959" />
    <rect x="225" y="240" width="120" height="10" rx="5" fill="#87b7ff" />
    <rect x="358" y="240" width="130" height="10" rx="5" fill="#7eb2ff" />
    <rect x="220" y="255" width="450" height="16" rx="8" fill="#143d80" />
    <rect x="810" y="242" width="110" height="18" rx="12" fill="#1c3d83" />
    <rect x="810" y="280" width="90" height="14" rx="7" fill="#2356b2" />
    <rect x="810" y="306" width="110" height="14" rx="7" fill="#223d81" />
    <rect x="810" y="332" width="80" height="14" rx="7" fill="#1f3a78" />
    <rect x="810" y="358" width="105" height="14" rx="7" fill="#1f3d83" />
    <rect x="810" y="384" width="95" height="14" rx="7" fill="#203e85" />
    <rect x="810" y="410" width="110" height="14" rx="7" fill="#172d69" />
    <rect x="810" y="438" width="70" height="14" rx="7" fill="#163163" />
    <rect x="810" y="464" width="100" height="14" rx="7" fill="#1a336f" />
    <circle cx="865" cy="522" r="32" fill="#1d3c7a" />
    <circle cx="865" cy="522" r="20" fill="#2f6cff" />
    <circle cx="865" cy="522" r="10" fill="#8fc8ff" />
    <circle cx="865" cy="590" r="28" fill="#1f3b7c" />
    <circle cx="865" cy="590" r="14" fill="#438cff" />
    <rect x="820" y="520" width="110" height="16" rx="8" fill="#164f8d" />
    <rect x="820" y="558" width="110" height="16" rx="8" fill="#103863" />
    <path d="M760 620H980V640H760V620Z" fill="#0d214b" />
    <rect x="210" y="355" width="100" height="32" rx="16" fill="#1b3f8d" />
    <rect x="210" y="405" width="120" height="18" rx="9" fill="#234f9d" />
    <rect x="210" y="435" width="80" height="18" rx="9" fill="#2354b4" />
  </g>
  <rect x="200" y="620" width="800" height="22" rx="11" fill="#0a1b3d" />
  <rect x="225" y="640" width="740" height="16" rx="8" fill="#0e2553" />
</svg>
